<?xml version="1.0" encoding="utf-8"?>
<!-- Generator: Adobe Illustrator 25.4.1, SVG Export Plug-In . SVG Version: 6.00 Build 0)  -->
<svg version="1.1" id="Layer_1" xmlns="http://www.w3.org/2000/svg" xmlns:xlink="http://www.w3.org/1999/xlink" x="0px" y="0px"
	 viewBox="0 0 300 100" style="enable-background:new 0 0 300 100;" xml:space="preserve">
<style type="text/css">
	.st0{opacity:0.95;enable-background:new    ;}
	.st1{fill:#10213A;}
	.st2{enable-background:new    ;}
	.st3{fill:#F73859;}
</style>
<g>
	<g class="st0">
		<path class="st1" d="M36.26,38.88v7.6h13.3v5.4h-13.3v10.5h-6.7v-28.9h21.8v5.4C51.36,38.88,36.26,38.88,36.26,38.88z"/>
		<path class="st1" d="M55.96,33.48h6.7v23.4h14.5v5.4h-21.2V33.48z"/>
		<path class="st1" d="M103.16,56.98v5.4h-22.3v-28.9h21.8v5.4h-15.2v6.3h13.4v5.2h-13.4v6.7h15.7V56.98z"/>
		<path class="st1" d="M130.76,56.98v5.4h-22.3v-28.9h21.8v5.4h-15.2v6.3h13.4v5.2h-13.4v6.7h15.7V56.98z"/>
	</g>
	<g class="st2">
		<path class="st1" d="M142.06,38.98h-9.2v-5.4h25.1v5.4h-9.2v23.4h-6.7L142.06,38.98L142.06,38.98z"/>
	</g>
	<g class="st2">
		<path class="st1" d="M182.26,56.88v5.4h-21.8v-4.3l11.1-10.5c2.6-2.4,3-3.9,3-5.3c0-2.3-1.6-3.6-4.6-3.6c-2.5,0-4.6,0.9-6,2.9
			l-4.9-3.1c2.2-3.3,6.3-5.4,11.5-5.4c6.4,0,10.7,3.3,10.7,8.5c0,2.8-0.8,5.4-4.8,9.1l-6.6,6.3
			C169.86,56.88,182.26,56.88,182.26,56.88z"/>
	</g>
	<g class="st2">
		<path class="st1" d="M210.96,56.28h-4.7v6.1h-6.5v-6.1h-15.5v-4.5l13.6-18.3h7l-12.6,17.3h7.7v-5.4h6.3v5.4h4.7V56.28z"/>
	</g>
	<g class="st2">
		<path class="st1" d="M227.76,62.38l-4.9-6.8l-5,6.8h-7l8.5-11.2l-8.2-11h7.2l4.7,6.5l4.8-6.5h6.8l-8.2,10.8l8.6,11.3h-7.3V62.38z"
			/>
	</g>
	<g class="st2">
		<path class="st1" d="M259.26,33.48v4.3l-10.7,24.5h-7.3l10.3-23.4h-9.6v4.7h-5.9v-10.1H259.26z"/>
	</g>
	<g class="st2">
		<path class="st3" d="M261.94,61.63c-0.7-0.7-1.05-1.56-1.05-2.58c0-1.02,0.35-1.88,1.05-2.58c0.7-0.7,1.56-1.05,2.57-1.05
			c1.02,0,1.88,0.35,2.58,1.05s1.05,1.56,1.05,2.58c0,1.02-0.35,1.87-1.05,2.58c-0.7,0.7-1.56,1.05-2.58,1.05
			C263.49,62.68,262.64,62.33,261.94,61.63z"/>
	</g>
</g>
</svg>
